<svg xmlns="http://www.w3.org/2000/svg" xmlns:xlink="http://www.w3.org/1999/xlink" width="2000" zoomAndPan="magnify" viewBox="0 0 1500 1499.999933" height="2000" preserveAspectRatio="xMidYMid meet" version="1.0"><defs><clipPath id="6647abfa55"><path d="M 592 917 L 878 917 L 878 1137.773438 L 592 1137.773438 Z M 592 917 " clip-rule="nonzero"/></clipPath><clipPath id="a08d9659c8"><path d="M 275 362.273438 L 538 362.273438 L 538 625 L 275 625 Z M 275 362.273438 " clip-rule="nonzero"/></clipPath></defs><path fill="#100f0d" d="M 292.839844 826.851562 L 253.265625 970.523438 L 537.722656 1046.746094 L 498.109375 881.863281 L 292.839844 826.851562 " fill-opacity="1" fill-rule="nonzero"/><g clip-path="url(#6647abfa55)"><path fill="#100f0d" d="M 632.539062 917.871094 L 592.964844 1061.542969 L 877.421875 1137.753906 L 837.808594 972.863281 L 632.539062 917.871094 " fill-opacity="1" fill-rule="nonzero"/></g><path fill="#100f0d" d="M 667.960938 729.027344 L 462.695312 674.023438 L 423.109375 817.695312 L 707.566406 893.90625 L 667.960938 729.027344 " fill-opacity="1" fill-rule="nonzero"/><path fill="#100f0d" d="M 993.082031 523.285156 L 815.304688 475.644531 L 505.304688 641.390625 L 683.082031 689.03125 L 993.082031 523.285156 " fill-opacity="1" fill-rule="nonzero"/><g clip-path="url(#a08d9659c8)"><path fill="#100f0d" d="M 283.550781 501.628906 C 346.855469 501.628906 398.355469 553.121094 398.355469 616.414062 C 398.355469 620.929688 402.027344 624.601562 406.546875 624.601562 C 411.066406 624.601562 414.726562 620.929688 414.726562 616.414062 C 414.726562 553.121094 466.226562 501.628906 529.539062 501.628906 C 534.058594 501.628906 537.722656 497.96875 537.722656 493.449219 C 537.722656 488.933594 534.058594 485.257812 529.539062 485.257812 C 466.226562 485.257812 414.726562 433.769531 414.726562 370.476562 C 414.726562 365.957031 411.066406 362.296875 406.546875 362.296875 C 402.027344 362.296875 398.355469 365.957031 398.355469 370.476562 C 398.355469 433.769531 346.855469 485.257812 283.550781 485.257812 C 279.035156 485.257812 275.371094 488.933594 275.371094 493.449219 C 275.371094 497.96875 279.035156 501.628906 283.550781 501.628906 " fill-opacity="1" fill-rule="nonzero"/></g><path fill="#100f0d" d="M 751.96875 891.914062 L 1078.113281 717.542969 L 1036.457031 548.34375 L 710.3125 722.71875 L 751.96875 891.914062 " fill-opacity="1" fill-rule="nonzero"/><path fill="#100f0d" d="M 852.957031 932.847656 L 1163.183594 766.980469 L 1105.285156 751.257812 L 795.066406 917.113281 L 852.957031 932.847656 " fill-opacity="1" fill-rule="nonzero"/><path fill="#100f0d" d="M 1206.210938 792.238281 L 880.097656 966.582031 L 920.859375 1135.421875 L 1246.972656 961.078125 L 1206.210938 792.238281 " fill-opacity="1" fill-rule="nonzero"/></svg>