<svg xmlns="http://www.w3.org/2000/svg" xmlns:xlink="http://www.w3.org/1999/xlink" width="2000" zoomAndPan="magnify" viewBox="0 0 1500 1499.999933" height="2000" preserveAspectRatio="xMidYMid meet" version="1.0"><defs><clipPath id="947a135e19"><path d="M 300 268.402344 L 1200 268.402344 L 1200 581 L 300 581 Z M 300 268.402344 " clip-rule="nonzero"/></clipPath><clipPath id="abba33663d"><path d="M 240.375 1164 L 1259.625 1164 L 1259.625 1231.402344 L 240.375 1231.402344 Z M 240.375 1164 " clip-rule="nonzero"/></clipPath></defs><g clip-path="url(#947a135e19)"><path fill="#020201" d="M 1199.410156 466.058594 L 1199.367188 466.058594 L 974.679688 367.230469 L 750 268.402344 L 300.632812 466.058594 L 300.589844 466.058594 L 300.589844 580.976562 L 1199.410156 580.976562 Z M 1199.410156 466.058594 " fill-opacity="1" fill-rule="nonzero"/></g><path fill="#020201" d="M 389.089844 1001.570312 C 375.761719 1001.570312 364.953125 1012.375 364.953125 1025.703125 C 364.953125 1039.03125 375.761719 1049.835938 389.089844 1049.835938 L 531.617188 1049.835938 C 544.945312 1049.835938 555.753906 1039.03125 555.753906 1025.703125 C 555.753906 1012.375 544.945312 1001.570312 531.617188 1001.570312 L 523.570312 1001.570312 L 523.570312 656.820312 L 531.617188 656.820312 C 544.945312 656.820312 555.753906 646.015625 555.753906 632.6875 C 555.753906 619.359375 544.945312 608.554688 531.617188 608.554688 L 389.089844 608.554688 C 375.761719 608.554688 364.953125 619.359375 364.953125 632.6875 C 364.953125 646.015625 375.761719 656.820312 389.089844 656.820312 L 397.136719 656.820312 L 397.136719 1001.570312 Z M 389.089844 1001.570312 " fill-opacity="1" fill-rule="nonzero"/><path fill="#020201" d="M 678.738281 1001.570312 C 665.40625 1001.570312 654.601562 1012.375 654.601562 1025.703125 C 654.601562 1039.03125 665.40625 1049.835938 678.738281 1049.835938 L 821.261719 1049.835938 C 834.589844 1049.835938 845.398438 1039.03125 845.398438 1025.703125 C 845.398438 1012.375 834.589844 1001.570312 821.261719 1001.570312 L 813.214844 1001.570312 L 813.214844 656.820312 L 821.261719 656.820312 C 834.589844 656.820312 845.398438 646.015625 845.398438 632.6875 C 845.398438 619.359375 834.589844 608.554688 821.261719 608.554688 L 678.738281 608.554688 C 665.40625 608.554688 654.601562 619.359375 654.601562 632.6875 C 654.601562 646.015625 665.40625 656.820312 678.738281 656.820312 L 686.78125 656.820312 L 686.78125 1001.570312 Z M 678.738281 1001.570312 " fill-opacity="1" fill-rule="nonzero"/><path fill="#020201" d="M 972.980469 1001.570312 C 959.648438 1001.570312 948.84375 1012.375 948.84375 1025.703125 C 948.84375 1039.03125 959.648438 1049.835938 972.980469 1049.835938 L 1115.503906 1049.835938 C 1128.835938 1049.835938 1139.640625 1039.03125 1139.640625 1025.703125 C 1139.640625 1012.375 1128.835938 1001.570312 1115.503906 1001.570312 L 1107.457031 1001.570312 L 1107.457031 656.820312 L 1115.503906 656.820312 C 1128.835938 656.820312 1139.640625 646.015625 1139.640625 632.6875 C 1139.640625 619.359375 1128.835938 608.554688 1115.503906 608.554688 L 972.980469 608.554688 C 959.648438 608.554688 948.84375 619.359375 948.84375 632.6875 C 948.84375 646.015625 959.648438 656.820312 972.980469 656.820312 L 981.027344 656.820312 L 981.027344 1001.570312 Z M 972.980469 1001.570312 " fill-opacity="1" fill-rule="nonzero"/><path fill="#020201" d="M 300.609375 1100.398438 L 300.609375 1114.1875 C 300.609375 1126.878906 310.902344 1137.171875 323.597656 1137.171875 L 1176.398438 1137.171875 C 1189.09375 1137.171875 1199.386719 1126.878906 1199.386719 1114.1875 L 1199.386719 1100.398438 C 1199.386719 1087.707031 1189.09375 1077.414062 1176.398438 1077.414062 L 323.597656 1077.414062 C 310.902344 1077.414062 300.609375 1087.703125 300.609375 1100.398438 Z M 300.609375 1100.398438 " fill-opacity="1" fill-rule="nonzero"/><g clip-path="url(#abba33663d)"><path fill="#020201" d="M 1236.191406 1164.75 L 263.808594 1164.75 C 251.113281 1164.75 240.820312 1175.042969 240.820312 1187.734375 L 240.820312 1208.421875 C 240.820312 1221.113281 251.113281 1231.402344 263.808594 1231.402344 L 1236.191406 1231.402344 C 1248.882812 1231.402344 1259.179688 1221.113281 1259.179688 1208.421875 L 1259.179688 1187.734375 C 1259.179688 1175.042969 1248.886719 1164.75 1236.191406 1164.75 Z M 1236.191406 1164.75 " fill-opacity="1" fill-rule="nonzero"/></g></svg>