<svg xmlns="http://www.w3.org/2000/svg" xmlns:xlink="http://www.w3.org/1999/xlink" width="2000" zoomAndPan="magnify" viewBox="0 0 1500 1499.999933" height="2000" preserveAspectRatio="xMidYMid meet" version="1.0"><defs><clipPath id="a21fb010d2"><path d="M 554 317.808594 L 943 317.808594 L 943 440 L 554 440 Z M 554 317.808594 " clip-rule="nonzero"/></clipPath><clipPath id="8682834c0e"><path d="M 262.339844 473 L 1237.339844 473 L 1237.339844 785 L 262.339844 785 Z M 262.339844 473 " clip-rule="nonzero"/></clipPath><clipPath id="4c592407a8"><path d="M 277 808 L 1222 808 L 1222 1182.558594 L 277 1182.558594 Z M 277 808 " clip-rule="nonzero"/></clipPath></defs><g clip-path="url(#a21fb010d2)"><path fill="#1f1f17" d="M 748.5625 317.902344 C 790.859375 317.835938 823.179688 317.8125 845.515625 317.835938 C 868.128906 317.859375 883.535156 319.390625 891.742188 322.4375 C 920.578125 333.164062 941.152344 358.113281 942.5 389.980469 C 942.640625 393.394531 942.410156 409.128906 941.808594 437.179688 C 941.773438 438.261719 940.886719 439.117188 939.804688 439.117188 L 880.816406 439.117188 C 879.902344 439.117188 879.15625 438.375 879.152344 437.457031 C 879.152344 437.421875 879.15625 437.386719 879.15625 437.351562 C 880.402344 411.917969 880.988281 389.117188 847.347656 390.777344 C 843.980469 390.9375 811.101562 391.078125 748.699219 391.191406 C 686.277344 391.285156 653.386719 391.261719 650.019531 391.121094 C 616.378906 389.566406 617.035156 412.367188 618.347656 437.765625 C 618.425781 438.679688 617.746094 439.484375 616.832031 439.5625 C 616.796875 439.5625 616.761719 439.566406 616.722656 439.566406 L 557.734375 439.738281 C 556.640625 439.757812 555.734375 438.894531 555.695312 437.800781 C 555.003906 409.75 554.726562 394.019531 554.867188 390.605469 C 556.109375 358.734375 576.613281 333.71875 605.417969 322.921875 C 613.601562 319.832031 629.011719 318.25 651.644531 318.179688 C 673.957031 318.066406 706.265625 317.972656 748.5625 317.902344 Z M 748.5625 317.902344 " fill-opacity="1" fill-rule="nonzero"/></g><g clip-path="url(#8682834c0e)"><path fill="#1f1f17" d="M 661.257812 782.582031 C 651.253906 783.296875 644.707031 783.640625 641.617188 783.621094 C 634.65625 783.550781 531.214844 783.675781 331.296875 784 C 305.085938 784.070312 279.605469 775.730469 267.953125 752.304688 C 264.472656 745.292969 262.695312 731.3125 262.628906 710.367188 C 262.441406 648.382812 262.363281 606.1875 262.386719 583.789062 C 262.453125 544.898438 261.277344 488.804688 310.828125 477.699219 C 322.976562 474.976562 338.222656 473.636719 356.570312 473.683594 C 474.84375 474.03125 721.144531 474.113281 1095.464844 473.925781 C 1125.433594 473.925781 1149.914062 474.15625 1168.90625 474.617188 C 1192.246094 475.171875 1216.3125 485.96875 1226.097656 508.390625 C 1238.542969 536.800781 1237.265625 557.699219 1237.265625 595.660156 C 1237.265625 657.457031 1237.609375 693.375 1236.296875 719.707031 C 1234.980469 746.285156 1225.679688 767.703125 1200.855469 778.324219 C 1192.070312 782.085938 1173.964844 783.953125 1146.535156 783.929688 C 1008.992188 783.746094 906.574219 783.886719 839.289062 784.347656 C 837.832031 784.371094 836.597656 783.257812 836.457031 781.785156 C 835.660156 771.925781 836.9375 758.222656 833.757812 749.8125 C 824.144531 724.414062 804.574219 718.84375 777.398438 720.191406 C 759.304688 721.09375 739.675781 721.195312 718.515625 720.503906 C 704.316406 720.042969 693.574219 721.738281 686.289062 725.589844 C 674.765625 731.679688 667.859375 740.792969 665.578125 752.925781 C 663.816406 762.269531 664.75 772.0625 663.746094 780.230469 C 663.585938 781.496094 662.546875 782.480469 661.257812 782.582031 Z M 661.257812 782.582031 " fill-opacity="1" fill-rule="nonzero"/></g><path fill="#1f1f17" d="M 707.453125 755.003906 L 793.199219 755.003906 C 796.714844 755.003906 799.5625 757.855469 799.5625 761.371094 L 799.5625 848.5 C 799.5625 852.015625 796.714844 854.867188 793.199219 854.867188 L 707.453125 854.867188 C 703.9375 854.867188 701.089844 852.015625 701.089844 848.5 L 701.089844 761.371094 C 701.089844 757.855469 703.9375 755.003906 707.453125 755.003906 Z M 707.453125 755.003906 " fill-opacity="1" fill-rule="nonzero"/><g clip-path="url(#4c592407a8)"><path fill="#1f1f17" d="M 749.183594 890.75 C 766.957031 890.75 794.617188 893.34375 808.035156 887.460938 C 825.460938 879.847656 834.96875 864.519531 835.003906 844.863281 C 835.027344 834.667969 835.074219 827.515625 835.140625 823.410156 C 835.179688 821.777344 836.515625 820.46875 838.148438 820.46875 C 996.234375 820.675781 1105.921875 820.675781 1167.214844 820.46875 C 1185.261719 820.402344 1202.34375 816.558594 1218.453125 808.949219 C 1219.40625 808.507812 1220.535156 808.90625 1220.976562 809.839844 C 1221.09375 810.089844 1221.15625 810.367188 1221.152344 810.644531 C 1221.289062 884.347656 1221.335938 980.851562 1221.289062 1100.164062 C 1221.289062 1124.84375 1219.550781 1140.75 1216.070312 1147.878906 C 1203.277344 1174.039062 1175.476562 1182.757812 1147.296875 1182.585938 C 1110.875 1182.332031 978.148438 1182.183594 749.117188 1182.136719 C 520.105469 1182.089844 387.390625 1182.179688 350.96875 1182.414062 C 322.789062 1182.585938 294.992188 1173.832031 282.199219 1147.671875 C 278.71875 1140.542969 276.988281 1124.636719 277.011719 1099.953125 C 277.011719 980.644531 277.09375 884.136719 277.253906 810.433594 C 277.242188 809.402344 278.085938 808.5625 279.132812 808.558594 C 279.417969 808.558594 279.695312 808.621094 279.949219 808.738281 C 296.0625 816.351562 313.144531 820.203125 331.191406 820.296875 C 392.484375 820.527344 502.171875 820.574219 660.253906 820.433594 C 661.890625 820.433594 663.226562 821.742188 663.265625 823.375 C 663.332031 827.480469 663.378906 834.632812 663.402344 844.828125 C 663.4375 864.484375 672.945312 879.8125 690.335938 887.460938 C 703.75 893.308594 731.449219 890.75 749.183594 890.75 Z M 749.183594 890.75 " fill-opacity="1" fill-rule="nonzero"/></g></svg>